<?xml version="1.0" encoding="UTF-8"?>
<svg id="Camada_1" data-name="Camada 1" xmlns="http://www.w3.org/2000/svg" xmlns:xlink="http://www.w3.org/1999/xlink" viewBox="0 0 254.45 90.6">
  <defs>
    <style>
      .cls-1 {
        fill: url(#Gradiente_sem_nome_78-13);
      }

      .cls-2 {
        fill: url(#Gradiente_sem_nome_78-10);
      }

      .cls-3 {
        fill: url(#Gradiente_sem_nome_78-2);
      }

      .cls-4 {
        fill: url(#Gradiente_sem_nome_78-6);
      }

      .cls-5 {
        fill: url(#Gradiente_sem_nome_78);
      }

      .cls-6 {
        fill: url(#Gradiente_sem_nome_78-8);
      }

      .cls-7 {
        fill: url(#Gradiente_sem_nome_78-7);
      }

      .cls-8 {
        fill: url(#Gradiente_sem_nome_78-11);
      }

      .cls-9 {
        fill: url(#Gradiente_sem_nome_78-9);
      }

      .cls-10 {
        fill: url(#Gradiente_sem_nome_78-4);
      }

      .cls-11 {
        fill: url(#Gradiente_sem_nome_78-3);
      }

      .cls-12 {
        fill: url(#Gradiente_sem_nome_78-5);
      }

      .cls-13 {
        fill: url(#Gradiente_sem_nome_78-12);
      }
    </style>
    <linearGradient id="Gradiente_sem_nome_78" data-name="Gradiente sem nome 78" x1="38.29" y1="51.39" x2="38.76" y2="81.04" gradientUnits="userSpaceOnUse">
      <stop offset="0" stop-color="#4cc9f0"/>
      <stop offset="1" stop-color="#4361ee"/>
    </linearGradient>
    <linearGradient id="Gradiente_sem_nome_78-2" data-name="Gradiente sem nome 78" x1="87.38" y1="50.61" x2="87.85" y2="80.26" xlink:href="#Gradiente_sem_nome_78"/>
    <linearGradient id="Gradiente_sem_nome_78-3" data-name="Gradiente sem nome 78" x1="120.52" y1="50.09" x2="120.99" y2="79.73" xlink:href="#Gradiente_sem_nome_78"/>
    <linearGradient id="Gradiente_sem_nome_78-4" data-name="Gradiente sem nome 78" x1="113.19" y1="50.2" x2="113.66" y2="79.85" xlink:href="#Gradiente_sem_nome_78"/>
    <linearGradient id="Gradiente_sem_nome_78-5" data-name="Gradiente sem nome 78" x1="114.55" y1="50.18" x2="115.02" y2="79.83" xlink:href="#Gradiente_sem_nome_78"/>
    <linearGradient id="Gradiente_sem_nome_78-6" data-name="Gradiente sem nome 78" x1="149.56" y1="49.62" x2="150.03" y2="79.27" xlink:href="#Gradiente_sem_nome_78"/>
    <linearGradient id="Gradiente_sem_nome_78-7" data-name="Gradiente sem nome 78" x1="150.98" y1="49.6" x2="151.45" y2="79.25" xlink:href="#Gradiente_sem_nome_78"/>
    <linearGradient id="Gradiente_sem_nome_78-8" data-name="Gradiente sem nome 78" x1="151.72" y1="49.59" x2="152.19" y2="79.24" xlink:href="#Gradiente_sem_nome_78"/>
    <linearGradient id="Gradiente_sem_nome_78-9" data-name="Gradiente sem nome 78" x1="155.18" y1="49.54" x2="155.65" y2="79.18" xlink:href="#Gradiente_sem_nome_78"/>
    <linearGradient id="Gradiente_sem_nome_78-10" data-name="Gradiente sem nome 78" x1="189.44" y1="48.99" x2="189.92" y2="78.64" xlink:href="#Gradiente_sem_nome_78"/>
    <linearGradient id="Gradiente_sem_nome_78-11" data-name="Gradiente sem nome 78" x1="232.39" y1="48.31" x2="232.86" y2="77.96" xlink:href="#Gradiente_sem_nome_78"/>
    <linearGradient id="Gradiente_sem_nome_78-12" data-name="Gradiente sem nome 78" x1="151.66" y1="49.59" x2="152.13" y2="79.24" xlink:href="#Gradiente_sem_nome_78"/>
    <linearGradient id="Gradiente_sem_nome_78-13" data-name="Gradiente sem nome 78" x1="159.55" y1="49.47" x2="160.02" y2="79.11" xlink:href="#Gradiente_sem_nome_78"/>
  </defs>
  <path class="cls-5" d="m48.29,21.32c.73-1.33.73-2.78.91-4.1-8.2,6.27-16.04,12.43-22.05,19.55-2,2.65-1.82,3.14,2.73,3.26,8.56.36,16.77,1.21,24.6,3.5,7.29,2.17,11.84,6.03,14.76,10.38,3.28,4.1,1.28,8.81-2.37,12.67-2.73,3.02-6.38,5.79-9.48,8.69v-.12.12s-.36.12-.36.36.36.36.36.48.18.12.18.12h-.18c-10.75,5.31-22.41,9.53-34.99,12.67-6.38,1.69-12.94,2.41-19.5.84-1.28-.48-2-1.09-2.92-1.57.73-.6,1.28-1.57,2.37-1.81,1.28-.6,2.73-.72,4.19-.96,2.19-.36,3.46-.97.18-1.93,0-.12.36-1.09.91-1.33,4.56-2.05,9.48-3.74,13.67-5.79,8.02-3.98,15.67-7.84,22.6-12.19,4.01-2.41,6.19-5.91,8.75-9.05.91-.72,1.28-1.81,1.09-2.41-.18-.72-1.46-1.33-2-2.29-.91.6-2.37,1.09-2.55,1.69-2.37,5.55-8.02,9.89-14.4,13.51-5.1,2.78-10.57,5.43-16.22,8.08-.91.36-1.82.48-2.73.85.73-.72,1.28-1.33,2.19-1.93,2.73-1.33,5.83-2.78,8.2-4.34,4.92-2.9,9.66-5.91,13.85-9.29,2.73-1.81,4.37-4.46,5.83-6.88,1.64-2.9.91-3.5-3.65-3.62-4.37,0-8.93.24-13.3.48-6.01.12-11.84.48-17.49.36-6.38-.12-10.02-3.38-7.65-7.24,3.28-5.07,6.56-10.13,10.93-14.96,7.65-8.33,16.77-16.05,27.52-22.8,5.83-3.62,11.66-5.67,19.5-3.26,4.01,1.09,7.65,2.17,11.3,3.5,2.92,1.09,4.01,2.9,3.1,5.19-4.01,7.48-8.56,15.08-16.04,21.48-3.28,3.02-12.76,2.66-15.31-.48-1.46-1.09-1.82-2.41-.73-3.74,1.64-1.93,2.92-3.86,4.19-5.67ZM14.76,82.73c-.73-.12-.91-.36-1.09-.36-1.09.48-2,.84-3.1,1.21.18.24.73.36.91.36.91-.48,2-.72,3.28-1.21Zm4.92-1.21v-.36h-.55c.18,0,.18.36.55.36Zm7.11-36.8c.73.12,1.46.24,2.19.36.91-.12,2-.24,2.73-.36-.55-.24-1.09-.6-2-.6-.73,0-2,.36-2.92.6Zm9.29,0c.91.12,1.64.24,2.37.24s1.09-.24,1.64-.24c-.55-.12-.91-.24-1.64-.36-.73.12-1.46.24-2.37.36Zm13.12-27.51c.18,0,.18.12.18.12v-.24s0,.12-.18.12Zm8.2,58.88v-.84c.73,0,1.46.12,2,.12-.55.24-1.28.6-2,.72Zm2.37-.72h-.36q.18,0,.18-.12l.18.12Zm1.28-.72c-.36.24-.73.48-1.28.72l-.18-.12c.55-.24,1.09-.48,1.46-.72v.12Zm1.46-.97c-.36.24-.91.48-1.46.97v-.12c.18-.36.73-.61,1.28-.85h.18Zm.91-1.08c-.36.24-.73.84-.91,1.08h-.18c.36-.48.55-.84.91-1.21l.18.12Zm1.64-.6c-.55.24-1.09.36-1.64.6l-.18-.12c.73-.12,1.09-.24,1.64-.6v.12-.12c.55-.24.91-.48,1.28-.84v.12c-.18.24-.73.61-1.09.85Zm2.73-1.57c-.55.24-1.09.36-1.64.72v-.12c.36-.24,1.09-.48,1.46-.72l.18.12Zm0,0l-.18-.12c.55,0,1.46-.24,2.01-.36-.55.12-1.28.36-1.82.48Zm4.01-3.26c-.73.97-1.46,1.93-2.19,2.78-.36-1.45-.73-2.66,2.19-2.78Zm.18,0h-.18v-.12l.18.12Z"/>
  <path class="cls-3" d="m103.48,42.49c0,.42-.35,1.03-.75,1.39-.29.24-.52-.06-.75-.48-.58-1.09-1.56-.91-2.42-.72-3.17.66-6.4,1.39-9.57,2.05-1.79.36-2.54,1.51-3.17,3.26-.92,2.66-2.13,5.25-3.23,7.85-.12.36-.12.66-.23,1.03.35,0,.75.12,1.1.06,2.54-.48,4.9-.91,7.44-1.45,2.65-.48,3.34,0,4.44,2.66.23.91.23,1.27-.75,1.51-2.13.54-4.27,1.09-6.46,1.81-2.54.66-4.96,1.63-7.44,2.35-1.1.42-1.73,1.09-2.02,2.35-.81,2.96-1.56,5.91-2.42,8.81-.06.42-.17.78-.17,1.09,0,.6.29.91.75.6,1.33-.66,2.54-1.33,3.69-1.99,3.69-2.05,7.61-3.32,11.65-4.23.75-.18,1.56-.3,2.25.36.17.36.4.66.63.97-.29.18-.58.48-.86.6-2.65.85-5.3,1.69-8.01,2.41-.63.18-.92.48-1.04,1.09,1.61-.48,3.17-1.15,4.84-1.63,1.61-.54,3.23-.91,4.79-1.27.35-.06.81-.06,1.15-.06.17.06.4.24.4.36,0,.3-.17.6-.29.79-.17.12-.46.18-.69.24-5.59,1.57-10.78,4.04-15.91,6.58-1.21.6-2.48,1.09-3.81,1.75-1.21.48-2.25.18-3-.91-.12-.06-.12-.3-.17-.36-2.19-.97-2.02-2.84-1.56-4.89.58-2.11,1.1-4.22,1.56-6.34.06-.3-.12-.6-.12-.91l.12.12-.12-.12h.12c.4-1.27.81-2.47,1.27-3.68.06-.36,0-.24-.46-.97-.17-.24-.12-.78,0-1.15,1.44-4.17,2.88-8.27,4.32-12.43.23-.66.63-1.51.92-2.11.4-.91.75-1.75-.17-2.47-.17-.18-.23-.78-.17-1.21,0-.36.17-.72.35-1.15-.35.3-.81.48-1.21.72-.29.18-.69.24-1.04.36.12-.54-.06-1.15.17-1.45.58-.6,1.15-1.03,1.79-1.33,2.31-1.03,4.61-2.05,7.03-2.78,3.17-.91,6.57-1.39,9.8-2.35,3.69-1.03,5.88,1.51,6.92,3.92.11.48.52.97.52,1.33Zm-28.54,20.82h-.06v.06l.06-.06Zm2.08,15.94c.06,0,.06.06.12.06,0,0,.06-.06.11-.06-.06,0-.06-.12-.11-.12,0,0-.06,0-.12.12Zm1.1-.79l.06.06v-.06h-.06Zm1.5-.54c-.4.24-.86.36-1.27.48.4-.06.86-.12,1.27-.18v-.3Zm1.67-.36c.12.06.29.06.52.06,1.33-1.09,2.77-1.63,4.32-1.75-1.73-.36-3.11.24-4.27,1.75-.29,0-.4,0-.58-.06Zm12.8-35.19c-2.13-.24-3.86.66-5.77,1.33-.11,0-.23.24-.23.3.06.06.23.18.4.18,1.79-.6,3.63-1.21,5.59-1.81Zm5.13-1.09c-.12-.06-.35-.12-.4-.12-1.44.36-2.88.78-4.27,1.15,1.38-.18,2.83-.36,4.21-.6.12-.06.35-.24.46-.42Z"/>
  <path class="cls-11" d="m144.52,34.92c-.5.72-1.37,1.44-2.16,2.02-7.63,6.05-13.61,13.32-19.66,20.81-1.08,1.3-1.3,2.45-.72,3.89,1.58,4.18,3.1,8.35,4.75,12.46.43,1.01,1.3,1.87.07,2.95-1.15.94-3.74,1.01-4.68,0-.65-.5-1.15-1.29-1.51-2.02-1.08-2.16-2.02-4.39-2.95-6.62-.36-.72-.86-1.22-1.22-1.87-.5.43-1.15.94-1.51,1.51-3.24,4.39-6.34,8.93-9.43,13.39-.5.58-.65,1.37-1.01-.07-.43-1.37-2.16-1.37-2.52,0-.58,2.02-1.58,1.73-2.88,1.08-2.16-.86-2.81-1.73-2.38-3.31,1.3-4.82,2.59-9.5,5.9-13.61,2.66-3.46,5.04-7.13,7.71-10.58,1.08-1.44,1.37-2.74.86-4.54-1.44-4.46-2.52-8.86-3.67-13.47-.36-1.15-.79-2.23,1.08-2.88,2.23-.72,3.96-.65,4.75.72.65.86,1.08,1.94,1.3,2.88.72,2.23,1.37,4.39,1.94,6.62.14.36.43.72.72,1.08.43-.22.86-.36,1.22-.72,2.95-3.1,5.76-6.41,8.86-9.5,2.52-2.45,5.54-4.68,8.35-6.98,1.01-.86,2.3-1.44,3.67-.43.29.36.72.94.72,1.37,0,.29-.58.79-.94,1.01-.79.43-1.73.65-2.38,1.3-2.95,2.74-5.9,5.69-8.93,8.71-.22.22-.22.72-.29,1.22,3.31-2.59,6.48-5.26,9.72-7.78.72-.65,1.66-1.44,2.52-1.44,1.51.07,3.02.58,4.54,1.15.29.07.43,1.15.14,1.66Zm-18.22,7.78c.36-.36.79-.79,1.15-1.15-.94,0-1.58.14-1.15,1.15Z"/>
  <path class="cls-10" d="m113.56,66.75q-.07,0-.22-.07c0,.07.14.07.14.14,0-.07.07-.07.07-.07Z"/>
  <path class="cls-12" d="m114.86,64.73l-.14-.07v.07h.14Z"/>
  <path class="cls-4" d="m149.22,25.5s-.07,0-.07.09v-.09h.07Z"/>
  <path class="cls-7" d="m151.23,63.16s-.07,0-.07.09v-.26s0,.09.07.17Z"/>
  <path class="cls-6" d="m151.95,57.16c-.07,0-.07-.09-.14-.17,0,0-.07.09-.07.17s.07.17.14.26c0-.09,0-.17.07-.26Z"/>
  <polygon class="cls-9" points="155.05 34.55 154.83 34.55 154.9 34.81 155.05 34.55"/>
  <path class="cls-2" d="m206.21,37.11c-.36,3.24-.36,6.48-.94,9.72-1.51,8.93-4.18,17.35-9.58,24.91-1.01,1.44-2.38,2.74-3.67,4.03-1.3,1.08-2.88,1.58-4.54,1.3-1.8-.43-3.46.07-5.11.65-4.03,1.44-6.98.14-8.57-3.82-1.22-2.88-1.08-5.9-.86-8.93.5-8.35,2.09-16.42,5.11-24.34.94-2.59,2.16-5.11,3.67-7.42,2.38-3.74,3.38-3.82,8.5-3.17.58.07,1.08.29,1.66.36,1.51.5,1.8.29,1.37-1.08-.72-1.8-1.08-3.82-3.02-4.75-.29-.14-.58-.65-.86-1.08-.43-.58-.14-1.3.79-1.3,4.97-.14,10.58.29,12.96,6.05.65,1.51,1.37,3.1,1.8,4.61.43,1.44.58,2.88.94,4.25h.36Zm-23.26,21.46c.94-8.14,2.3-16.06,5.76-23.62.14-.22.07-.58.07-.86-.29.22-.72.36-.86.65-.72,1.15-1.37,2.38-1.94,3.67-2.74,6.91-4.1,14.11-5.33,21.39-.43,3.24-.58,6.55-.86,9.94h.14c.22.94.36,1.87.58,2.74.14.5.5.79.79,1.3.43-.43.94-.65,1.15-1.08.22-.43.43-1.08.43-1.66-.5-4.18-.5-8.28.07-12.46Zm2.3,10.22c.43-.43.94-.72,1.22-1.22,4.54-7.63,7.06-15.91,8.06-24.55.29-2.3.29-4.61.36-6.91h-.14c-.07-.72-.22-1.37-.43-2.02-.07-.43-.36-.72-.58-1.08-.36.22-.94.43-1.15.72-.94,1.51-1.8,3.1-2.38,4.68-3.6,9.29-4.97,18.94-5.4,28.73,0,.5.29,1.08.43,1.66Zm16.06-19.73c.72-4.18,1.22-8.21.72-12.38-.22.29-.58.5-.58.94-.07.65.14,1.37.14,2.02-.65,8.71-3.31,16.99-7.42,24.91-1.8,3.53-3.96,6.91-6.48,10.01-.29.22-.36.65-.5,1.08.5,0,1.01.07,1.44-.22.94-.65,1.94-1.3,2.66-2.16,1.08-1.37,2.16-2.81,3.02-4.39,3.67-6.19,5.69-12.89,6.98-19.8Zm-.94-18.65v-.07.07Zm.58.94c-.07-.36-.36-.5-.58-.79.07.36.14.58.22.86.07.22.14.5.29.72,0-.36.22-.58.07-.79Zm.36,2.74c-.07.07-.14.07-.07.07,0,.14.07.22.07.29v-.36Z"/>
  <path class="cls-8" d="m254.41,28.69c-.36,1.66-.86,3.31-1.37,4.9-3.82,10.23-5.98,20.95-8.35,31.61-.72,3.46-.86,7.06-1.37,10.58,0,.22-.07.79-.29.87-1.22.43-2.52.94-3.67.94-1.22,0-1.94-1.08-2.23-2.38-.22-1.22-.36-2.59-.22-3.96.58-4.97,1.15-9.94,1.73-14.98v-1.15c-.29.43-.5.79-.58,1.22-.43,2.38-.94,4.9-1.3,7.27-.36,2.09-.65,4.18-1.08,6.26,0,.22-.29.36-.36.65-.14-.29-.5-.58-.5-.79.14-3.46.43-6.91.65-10.37.07-.72.22-1.37.29-2.09,0-.29-.22-.65-.36-.86-.14.14-.5.36-.65.65-2.09,4.18-4.32,8.28-6.48,12.46-1.01,1.73-2.09,3.46-3.31,5.04-.72,1.22-1.8,2.16-3.38,2.16-.36,0-.65.5-1.01.65-.29.07-.58.36-.65.22-1.3-.72-2.66-1.44-3.74-2.38-.72-.5-1.22-.58-1.87-.21v-.07c-2.38.14-2.59,0-3.24-2.3-1.01-3.02-.79-6.19-.5-9.22.86-8.71,2.66-17.21,5.9-25.35.65-1.66,1.51-3.17,2.3-4.68.36-.65.79-1.3,1.66-.58.14.07.5.07.65,0,2.52-1.87,4.39.07,6.55,1.01.86.5.5,1.3.29,2.09-1.01,2.95-2.02,5.9-2.88,8.86-2.09,7.27-3.53,14.62-3.96,22.18,0,.43-.07.72-.07,1.08.07.36.22.79.43,1.15.22-.29.65-.65.79-.94,1.94-3.96,3.82-7.7,5.62-11.74,4.32-10.15,10.3-19.37,15.99-28.66.65-.94,1.3-1.73,1.8-2.74.65-1.44,1.66-1.73,3.1-1.58,2.45.36,3.89,2.02,5.47,3.46.29.43.29,1.22.22,1.73Zm-36.72,15.27c0-.22-.14-.43-.22-.58,0,.14-.14.36,0,.58,0,.36.07.79.14,1.22-.43.65-1.01,1.15-1.15,1.8-1.3,6.77-2.66,13.68-3.67,20.52-.43,2.45-.43,5.33,1.51,7.42.65-.86.94-1.8.58-3.02-.14-.86-.22-1.8-.29-2.81-.14-5.4.29-10.73,1.3-16.06.36-2.66,1.08-5.26,1.73-7.92.07-.36.07-.79.07-1.15Zm1.01-4.39v-.29l-.14.14.14.14Zm20.67,12.75c-.14.07-.29.22-.36.29-.14.14-.14.29-.22.43.22-.07.36-.14.43-.29.14-.14.14-.29.14-.43Zm-.5.86l-.07-.14.07.14Zm.58-2.74l-.07-.14.07.14Zm.79-1.73c0-.07,0-.14-.07-.14.07,0,.07.07.07.07-.07.29-.22.5-.36.72.14-.22.22-.43.36-.65Z"/>
  <g>
    <path class="cls-13" d="m151.81,59.34c0,.09.07,0,.07,0,0-.17.07-.26.07-.35-.07,0-.14.09-.29.09.07.09.07.26.14.26Z"/>
    <path class="cls-1" d="m208.9,6.82c.03.27-.13.56-.47.56-.84,0-1.59.22-2.4.39-.5.11-1.01.09-1.52.1-.84.27-1.71.41-2.55.69-1.05.34-1.84,1.15-3.02.92-.34-.07-.43-.47-.3-.73.04-.08.09-.13.14-.2-10.2,1.84-18.99,3.67-18.99,3.67h0c-.48-.2-1.04-.25-1.69-.19-4.73.48-9.49.75-14.22,1.1,0,0,0,0-.01.01-.29.16-.6.26-.92.31-.33.05-.65.05-.98.05-.16,0-.29-.08-.38-.19-1.41.11-2.82.23-4.22.37-5.26.7-10.37,1.83-15.34,3.91-5.1.06-9.98.03-14.58-.03-.05.04-.11.07-.17.09-.77.25-1.58.14-2.37.08-.17-.01-.31-.09-.4-.22-8.91-.15-16.67-.41-22.8-.42.09.22.03.52-.2.62-.39.18-.8.39-1.24.39-.44,0-.89-.16-1.32-.25-.09-.02-.19-.03-.29-.04-.19.05-.37.11-.56.16-.79.24-1.59.43-2.41.59-1.37.5-2.71,1.17-4.21,1.01-.63-.07-1.24-.21-1.86-.33-.18.05-.36.11-.52.2-.27.14-.52.33-.79.48.01.06.03.12.03.13.3.93.89,1.8,1.41,2.62.2.31.45.7.67.87.37.3.81.52,1.19.79.54.38,1.08.95,1.59,1.34.62.03,1.22.13,1.81.29.04,0,.07-.02.12-.01,1.35.13,2.74.41,4.11.34.86-.05,1.86-.22,2.7.05.51-.12,1.03-.2,1.54-.21.84,0,1.46.69,1.5,1.5,0,.1,0,.21-.02.31.16.04.32.11.49.22.5.34.94.8,1.33,1.29.14.07.28.14.43.18.14.04.24.15.3.27,3.41.39,5.84.44,5.84.44l6.56-.97c.07-.1.16-.17.27-.21.79-.24,1.6-.41,2.42-.19l7.96-1.18s0-.03,0-.04c.02-.06.05-.12.1-.16.05-.05.1-.08.16-.1.06-.03.12-.05.19-.04h.47c.09,0,.17.02.25.07.03.03.07.05.1.08,0,0,0,0,0,.01l10.58-1.57c.19,0,.39-.02.6-.09,4.54-1.91,9.22-2.35,13.75-3.22.22,0,.5.09.72.17-.22.17-.5.61-.72.61-2.23.52-4.39.87-6.55,1.3-.36,0-.65.43-1.01.7,2.45-.26,4.75-.61,7.06-.87.58,0,1.15.09.94.96-.5,2-1.08,3.91-1.66,5.83-.07.52-.14.87-.29,1.3,0-.43-.07-.78-.07-1.22-.79,3.04-1.8,5.83-2.23,8.96-.86,6.7-1.37,13.57-2.09,20.26-.14.7.14,1.48.29,2.26,0-.69.07-1.39.07-2.09.07.17.22.17.22.17-.14.61-.22,1.39-.22,2.09v.17q0-.09-.07-.09c0,.09-.07.26-.14.35-.07.52-.07,1.04-.07,1.65,0-.43.07-.78.07-1.22.07.7.14,1.39.14,2.26,0,3.22-.43,6.61.29,9.91.36,1.74,1.15,2.61,2.38,2.87.79.17,1.87-.09,2.74-.43.29-.26.22-1.48.22-2.26.14-3.04.14-5.91.5-8.96,1.66-14.26,4.9-28.09,7.99-42.01.29-1.22.86-1.74,1.87-1.83,3.89-.26,7.78-.78,11.67-1.22.22,0,.43-.26.58-.35-.14,0-.43-.09-.58-.09-3.24.09-6.34.26-9.5.44-1.44.17-2.81.26-4.18.26-.14,0-.36-.26-.65-.35.29-.09.36-.35.5-.35.79-.09,1.58,0,2.3-.09,4.25-.52,8.35-.87,12.53-1.39.84-.06,1.41-.21,1.8-.48h0s16.21.02,30.11-2.72c-.12-.06-.24-.12-.37-.19-.2-.01-.41-.04-.61-.07-.78-.14-1.51-.46-2.28-.63-.1-.03-.16-.08-.22-.13-.38-.08-.76-.2-1.13-.39-.53-.26-.14-1.04.39-.91,1.32.32,3.03.41,4.28-.2,1.11-.54,1.98-1.42,3.19-1.78,2.34-.69,4.7.2,7,.73.79-.99,1.18-2.27,3.61-4.42-.02,0-.05-.01-.07-.02-.33-.12-.6-.34-.78-.63-.65-.17-1.31-.18-1.98-.05-.65.13-1.3.27-1.96.36-.01,0-.02.01-.03.02-.33.15-.71.24-1.03,0-.08-.06-.15-.13-.21-.21-.27-.04-.53-.13-.77-.3-.22-.15-.33-.44-.18-.68.31-.5.75-.78,1.26-.91.33-.41.87-.62,1.49-.63.14,0,.27.01.41.02.23-.02.46-.02.68-.02.5,0,1.02.06,1.5.19,1.1-.13,2.22.02,3.28.3.15.01.3.03.46.04.31.02.46.27.47.52.12-.09.23-.17.35-.25,4.87-3.41-6.57-2.26-19.59-.18Zm-57.02,52.52s-.07.09-.07,0c-.07,0-.07-.17-.14-.26.14,0,.22-.09.29-.09,0,.09-.07.17-.07.35Z"/>
  </g>
</svg>