<?xml version="1.0" encoding="utf-8"?>
<!-- Generator: Adobe Illustrator 27.4.1, SVG Export Plug-In . SVG Version: 6.00 Build 0)  -->
<svg version="1.1" id="Camada_1" xmlns="http://www.w3.org/2000/svg" xmlns:xlink="http://www.w3.org/1999/xlink" x="0px" y="0px"
	 viewBox="0 0 288 560" style="enable-background:new 0 0 288 560;" xml:space="preserve">
<style type="text/css">
	.st0{fill:#EDDEDE;stroke:#000000;stroke-miterlimit:10;}
</style>
<g>
	<path class="st0" d="M65.2,256.8c0.7-1.3,0.7-2.8,0.9-4.1c-8.2,6.3-16,12.4-22,19.5c-2,2.7-1.8,3.1,2.7,3.3
		c8.6,0.4,16.8,1.2,24.6,3.5c7.3,2.2,11.8,6,14.8,10.4c3.3,4.1,1.3,8.8-2.4,12.7c-2.7,3-6.4,5.8-9.5,8.7v-0.1v0.1
		c0,0-0.4,0.1-0.4,0.4s0.4,0.4,0.4,0.5s0.2,0.1,0.2,0.1h-0.2c-10.8,5.3-22.4,9.5-35,12.7c-6.4,1.7-12.9,2.4-19.5,0.8
		c-1.3-0.5-2-1.1-2.9-1.6c0.7-0.6,1.3-1.6,2.4-1.8c1.3-0.6,2.7-0.7,4.2-1c2.2-0.4,3.5-1,0.2-1.9c0-0.1,0.4-1.1,0.9-1.3
		c4.6-2.1,9.5-3.7,13.7-5.8c8-4,15.7-7.8,22.6-12.2c4-2.4,6.2-5.9,8.7-9c0.9-0.7,1.3-1.8,1.1-2.4c-0.2-0.7-1.5-1.3-2-2.3
		c-0.9,0.6-2.4,1.1-2.6,1.7c-2.4,5.6-8,9.9-14.4,13.5c-5.1,2.8-10.6,5.4-16.2,8.1c-0.9,0.4-1.8,0.5-2.7,0.8c0.7-0.7,1.3-1.3,2.2-1.9
		c2.7-1.3,5.8-2.8,8.2-4.3c4.9-2.9,9.7-5.9,13.8-9.3c2.7-1.8,4.4-4.5,5.8-6.9c1.6-2.9,0.9-3.5-3.6-3.6c-4.4,0-8.9,0.2-13.3,0.5
		c-6,0.1-11.8,0.5-17.5,0.4c-6.4-0.1-10-3.4-7.7-7.2c3.3-5.1,6.6-10.1,10.9-15c7.7-8.3,16.8-16,27.5-22.8c5.8-3.6,11.7-5.7,19.5-3.3
		c4,1.1,7.7,2.2,11.3,3.5c2.9,1.1,4,2.9,3.1,5.2c-4,7.5-8.6,15.1-16,21.5c-3.3,3-12.8,2.7-15.3-0.5c-1.5-1.1-1.8-2.4-0.7-3.7
		C62.7,260.5,64,258.6,65.2,256.8z M31.7,318.2c-0.7-0.1-0.9-0.4-1.1-0.4c-1.1,0.5-2,0.8-3.1,1.2c0.2,0.2,0.7,0.4,0.9,0.4
		C29.3,318.9,30.4,318.6,31.7,318.2z M36.6,317c0,0,0,0,0-0.4c0,0-0.4,0-0.5,0C36.3,316.6,36.3,317,36.6,317z M43.7,280.2
		c0.7,0.1,1.5,0.2,2.2,0.4c0.9-0.1,2-0.2,2.7-0.4c-0.5-0.2-1.1-0.6-2-0.6C45.9,279.6,44.7,279.9,43.7,280.2z M53,280.2
		c0.9,0.1,1.6,0.2,2.4,0.2c0.7,0,1.1-0.2,1.6-0.2c-0.5-0.1-0.9-0.2-1.6-0.4C54.7,279.9,53.9,280,53,280.2z M66.2,252.6
		c0.2,0,0.2,0.1,0.2,0.1c0-0.1,0-0.1,0-0.2C66.3,252.5,66.3,252.6,66.2,252.6z M74.4,311.5c0-0.2,0-0.5,0-0.8c0.7,0,1.5,0.1,2,0.1
		C75.8,311,75.1,311.4,74.4,311.5z M76.7,310.8c0,0-0.2,0-0.4,0c0.2,0,0.2,0,0.2-0.1L76.7,310.8z M78,310.1
		c-0.4,0.2-0.7,0.5-1.3,0.7l-0.2-0.1c0.5-0.2,1.1-0.5,1.5-0.7V310.1z M79.5,309.1c-0.4,0.2-0.9,0.5-1.5,1V310
		c0.2-0.4,0.7-0.6,1.3-0.8H79.5z M80.4,308c-0.4,0.2-0.7,0.8-0.9,1.1h-0.2c0.4-0.5,0.5-0.8,0.9-1.2L80.4,308z M82,307.4
		c-0.5,0.2-1.1,0.4-1.6,0.6l-0.2-0.1c0.7-0.1,1.1-0.2,1.6-0.6v0.1v-0.1c0.5-0.2,0.9-0.5,1.3-0.8v0.1C82.9,306.8,82.4,307.2,82,307.4
		z M84.7,305.9c-0.5,0.2-1.1,0.4-1.6,0.7v-0.1c0.4-0.2,1.1-0.5,1.5-0.7L84.7,305.9z M84.7,305.9l-0.2-0.1c0.5,0,1.5-0.2,2-0.4
		C86,305.5,85.3,305.7,84.7,305.9z M88.8,302.6c-0.7,1-1.5,1.9-2.2,2.8C86.2,303.9,85.8,302.7,88.8,302.6z M88.9,302.6
		c-0.2,0-0.2,0-0.2,0s0,0,0-0.1L88.9,302.6z"/>
	<path class="st0" d="M120.4,277.9c0,0.4-0.3,1-0.7,1.4c-0.3,0.2-0.5-0.1-0.7-0.5c-0.6-1.1-1.6-0.9-2.4-0.7
		c-3.2,0.7-6.4,1.4-9.6,2.1c-1.8,0.4-2.5,1.5-3.2,3.3c-0.9,2.7-2.1,5.3-3.2,7.8c-0.1,0.4-0.1,0.7-0.2,1c0.3,0,0.7,0.1,1.1,0.1
		c2.5-0.5,4.9-0.9,7.4-1.4c2.7-0.5,3.3,0,4.4,2.7c0.2,0.9,0.2,1.3-0.7,1.5c-2.1,0.5-4.3,1.1-6.5,1.8c-2.5,0.7-5,1.6-7.4,2.4
		c-1.1,0.4-1.7,1.1-2,2.4c-0.8,3-1.6,5.9-2.4,8.8c-0.1,0.4-0.2,0.8-0.2,1.1c0,0.6,0.3,0.9,0.7,0.6c1.3-0.7,2.5-1.3,3.7-2
		c3.7-2.1,7.6-3.3,11.6-4.2c0.7-0.2,1.6-0.3,2.2,0.4c0.2,0.4,0.4,0.7,0.6,1c-0.3,0.2-0.6,0.5-0.9,0.6c-2.7,0.8-5.3,1.7-8,2.4
		c-0.6,0.2-0.9,0.5-1,1.1c1.6-0.5,3.2-1.1,4.8-1.6c1.6-0.5,3.2-0.9,4.8-1.3c0.3-0.1,0.8-0.1,1.2-0.1c0.2,0.1,0.4,0.2,0.4,0.4
		c0,0.3-0.2,0.6-0.3,0.8c-0.2,0.1-0.5,0.2-0.7,0.2c-5.6,1.6-10.8,4-15.9,6.6c-1.2,0.6-2.5,1.1-3.8,1.8c-1.2,0.5-2.2,0.2-3-0.9
		c-0.1-0.1-0.1-0.3-0.2-0.4c-2.2-1-2-2.8-1.6-4.9c0.6-2.1,1.1-4.2,1.6-6.3c0.1-0.3-0.1-0.6-0.1-0.9l0.1,0.1l-0.1-0.1h0.1
		c0.4-1.3,0.8-2.5,1.3-3.7c0.1-0.4,0-0.2-0.5-1c-0.2-0.2-0.1-0.8,0-1.1c1.4-4.2,2.9-8.3,4.3-12.4c0.2-0.7,0.6-1.5,0.9-2.1
		c0.4-0.9,0.7-1.8-0.2-2.5c-0.2-0.2-0.2-0.8-0.2-1.2c0-0.4,0.2-0.7,0.3-1.1c-0.3,0.3-0.8,0.5-1.2,0.7c-0.3,0.2-0.7,0.2-1,0.4
		c0.1-0.5-0.1-1.1,0.2-1.4c0.6-0.6,1.2-1,1.8-1.3c2.3-1,4.6-2.1,7-2.8c3.2-0.9,6.6-1.4,9.8-2.4c3.7-1,5.9,1.5,6.9,3.9
		C120,277.1,120.4,277.6,120.4,277.9z M91.9,298.7L91.9,298.7L91.9,298.7L91.9,298.7z M94,314.7c0.1,0,0.1,0.1,0.1,0.1
		c0,0,0.1-0.1,0.1-0.1c-0.1,0-0.1-0.1-0.1-0.1C94.1,314.6,94,314.6,94,314.7z M95.1,313.9C95.1,314,95.1,314,95.1,313.9L95.1,313.9
		L95.1,313.9z M96.6,313.4c-0.4,0.2-0.9,0.4-1.3,0.5c0.4-0.1,0.9-0.1,1.3-0.2C96.6,313.7,96.6,313.5,96.6,313.4z M98.2,313
		c0.1,0.1,0.3,0.1,0.5,0.1c1.3-1.1,2.8-1.6,4.3-1.8c-1.7-0.4-3.1,0.2-4.3,1.8C98.5,313.1,98.4,313.1,98.2,313z M111,277.8
		c-2.1-0.2-3.9,0.7-5.8,1.3c-0.1,0-0.2,0.2-0.2,0.3c0.1,0.1,0.2,0.2,0.4,0.2C107.2,279,109.1,278.4,111,277.8z M116.2,276.7
		c-0.1-0.1-0.3-0.1-0.4-0.1c-1.4,0.4-2.9,0.8-4.3,1.1c1.4-0.2,2.8-0.4,4.2-0.6C115.8,277.1,116.1,276.9,116.2,276.7z"/>
	<path class="st0" d="M161.5,270.4c-0.5,0.7-1.4,1.4-2.2,2c-7.6,6-13.6,13.3-19.7,20.8c-1.1,1.3-1.3,2.4-0.7,3.9
		c1.6,4.2,3.1,8.4,4.8,12.5c0.4,1,1.3,1.9,0.1,3c-1.2,0.9-3.7,1-4.7,0c-0.6-0.5-1.2-1.3-1.5-2c-1.1-2.2-2-4.4-3-6.6
		c-0.4-0.7-0.9-1.2-1.2-1.9c-0.5,0.4-1.2,0.9-1.5,1.5c-3.2,4.4-6.3,8.9-9.4,13.4c-0.5,0.6-0.6,1.4-1-0.1c-0.4-1.4-2.2-1.4-2.5,0
		c-0.6,2-1.6,1.7-2.9,1.1c-2.2-0.9-2.8-1.7-2.4-3.3c1.3-4.8,2.6-9.5,5.9-13.6c2.7-3.5,5-7.1,7.7-10.6c1.1-1.4,1.4-2.7,0.9-4.5
		c-1.4-4.5-2.5-8.9-3.7-13.5c-0.4-1.2-0.8-2.2,1.1-2.9c2.2-0.7,4-0.6,4.8,0.7c0.6,0.9,1.1,1.9,1.3,2.9c0.7,2.2,1.4,4.4,1.9,6.6
		c0.1,0.4,0.4,0.7,0.7,1.1c0.4-0.2,0.9-0.4,1.2-0.7c3-3.1,5.8-6.4,8.9-9.5c2.5-2.4,5.5-4.7,8.4-7c1-0.9,2.3-1.4,3.7-0.4
		c0.3,0.4,0.7,0.9,0.7,1.4c0,0.3-0.6,0.8-0.9,1c-0.8,0.4-1.7,0.6-2.4,1.3c-3,2.7-5.9,5.7-8.9,8.7c-0.2,0.2-0.2,0.7-0.3,1.2
		c3.3-2.6,6.5-5.3,9.7-7.8c0.7-0.6,1.7-1.4,2.5-1.4c1.5,0.1,3,0.6,4.5,1.2C161.6,268.8,161.8,269.9,161.5,270.4z M143.3,278.1
		c0.4-0.4,0.8-0.8,1.2-1.2C143.5,277,142.8,277.1,143.3,278.1z"/>
	<path class="st0" d="M130.5,302.2c-0.1,0-0.1,0-0.2-0.1C130.3,302.2,130.4,302.2,130.5,302.2C130.4,302.2,130.5,302.2,130.5,302.2z
		"/>
	<path class="st0" d="M131.8,300.2l-0.1-0.1v0.1C131.8,300.2,131.8,300.2,131.8,300.2z"/>
	<path class="st0" d="M141.9,279.8L141.9,279.8L141.9,279.8z"/>
	<path class="st0" d="M166.2,260.9C166.2,260.9,166.1,260.9,166.2,260.9L166.2,260.9C166.1,260.9,166.1,260.9,166.2,260.9z"/>
	<path class="st0" d="M168.2,298.6C168.2,298.6,168.1,298.6,168.2,298.6C168.1,298.6,168.1,298.6,168.2,298.6l-0.1-0.2
		C168.1,298.4,168.1,298.5,168.2,298.6z"/>
	<path class="st0" d="M168.9,292.6c-0.1,0-0.1-0.1-0.1-0.2c0,0-0.1,0.1-0.1,0.2c0,0.1,0.1,0.2,0.1,0.3
		C168.8,292.8,168.8,292.7,168.9,292.6z"/>
	<polygon class="st0" points="172,270 171.8,270 171.9,270.2 	"/>
	<path class="st0" d="M223.2,272.5c-0.4,3.2-0.4,6.5-0.9,9.7c-1.5,8.9-4.2,17.4-9.6,24.9c-1,1.4-2.4,2.7-3.7,4
		c-1.3,1.1-2.9,1.6-4.5,1.3c-1.8-0.4-3.5,0.1-5.1,0.6c-4,1.4-7,0.1-8.6-3.8c-1.2-2.9-1.1-5.9-0.9-8.9c0.5-8.4,2.1-16.4,5.1-24.3
		c0.9-2.6,2.2-5.1,3.7-7.4c2.4-3.7,3.4-3.8,8.5-3.2c0.6,0.1,1.1,0.3,1.7,0.4c1.5,0.5,1.8,0.3,1.4-1.1c-0.7-1.8-1.1-3.8-3-4.8
		c-0.3-0.1-0.6-0.6-0.9-1.1c-0.4-0.6-0.1-1.3,0.8-1.3c5-0.1,10.6,0.3,13,6c0.6,1.5,1.4,3.1,1.8,4.6c0.4,1.4,0.6,2.9,0.9,4.2
		C222.9,272.5,223,272.5,223.2,272.5z M199.9,294c0.9-8.1,2.3-16.1,5.8-23.6c0.1-0.2,0.1-0.6,0.1-0.9c-0.3,0.2-0.7,0.4-0.9,0.6
		c-0.7,1.2-1.4,2.4-1.9,3.7c-2.7,6.9-4.1,14.1-5.3,21.4c-0.4,3.2-0.6,6.6-0.9,9.9c0,0,0.1,0,0.1,0c0.2,0.9,0.4,1.9,0.6,2.7
		c0.1,0.5,0.5,0.8,0.8,1.3c0.4-0.4,0.9-0.6,1.2-1.1c0.2-0.4,0.4-1.1,0.4-1.7C199.3,302.3,199.3,298.2,199.9,294z M202.2,304.2
		c0.4-0.4,0.9-0.7,1.2-1.2c4.5-7.6,7.1-15.9,8.1-24.6c0.3-2.3,0.3-4.6,0.4-6.9c-0.1,0-0.1,0-0.1,0c-0.1-0.7-0.2-1.4-0.4-2
		c-0.1-0.4-0.4-0.7-0.6-1.1c-0.4,0.2-0.9,0.4-1.2,0.7c-0.9,1.5-1.8,3.1-2.4,4.7c-3.6,9.3-5,18.9-5.4,28.7
		C201.8,303.1,202.1,303.7,202.2,304.2z M218.3,284.5c0.7-4.2,1.2-8.2,0.7-12.4c-0.2,0.3-0.6,0.5-0.6,0.9c-0.1,0.6,0.1,1.4,0.1,2
		c-0.6,8.7-3.3,17-7.4,24.9c-1.8,3.5-4,6.9-6.5,10c-0.3,0.2-0.4,0.6-0.5,1.1c0.5,0,1,0.1,1.4-0.2c0.9-0.6,1.9-1.3,2.7-2.2
		c1.1-1.4,2.2-2.8,3-4.4C215,298.1,217,291.4,218.3,284.5z M217.3,265.9L217.3,265.9L217.3,265.9z M217.9,266.8
		c-0.1-0.4-0.4-0.5-0.6-0.8c0.1,0.4,0.1,0.6,0.2,0.9c0.1,0.2,0.1,0.5,0.3,0.7C217.8,267.2,218.1,267,217.9,266.8z M218.3,269.5
		C218.2,269.6,218.1,269.6,218.3,269.5c-0.1,0.2,0,0.3,0,0.4C218.3,269.7,218.3,269.7,218.3,269.5z"/>
	<path class="st0" d="M271.4,264.1c-0.4,1.7-0.9,3.3-1.4,4.9c-3.8,10.2-6,21-8.4,31.6c-0.7,3.5-0.9,7.1-1.4,10.6
		c0,0.2-0.1,0.8-0.3,0.9c-1.2,0.4-2.5,0.9-3.7,0.9c-1.2,0-1.9-1.1-2.2-2.4c-0.2-1.2-0.4-2.6-0.2-4c0.6-5,1.2-9.9,1.7-15
		c0-0.4,0-0.7,0-1.2c-0.3,0.4-0.5,0.8-0.6,1.2c-0.4,2.4-0.9,4.9-1.3,7.3c-0.4,2.1-0.6,4.2-1.1,6.3c0,0.2-0.3,0.4-0.4,0.6
		c-0.1-0.3-0.5-0.6-0.5-0.8c0.1-3.5,0.4-6.9,0.6-10.4c0.1-0.7,0.2-1.4,0.3-2.1c0-0.3-0.2-0.6-0.4-0.9c-0.1,0.1-0.5,0.4-0.6,0.6
		c-2.1,4.2-4.3,8.3-6.5,12.5c-1,1.7-2.1,3.5-3.3,5c-0.7,1.2-1.8,2.2-3.4,2.2c-0.4,0-0.6,0.5-1,0.6c-0.3,0.1-0.6,0.4-0.6,0.2
		c-1.3-0.7-2.7-1.4-3.7-2.4c-0.7-0.5-1.2-0.6-1.9-0.2c0,0,0,0,0-0.1c-2.4,0.1-2.6,0-3.2-2.3c-1-3-0.8-6.2-0.5-9.2
		c0.9-8.7,2.7-17.2,5.9-25.3c0.6-1.7,1.5-3.2,2.3-4.7c0.4-0.6,0.8-1.3,1.7-0.6c0.1,0.1,0.5,0.1,0.6,0c2.5-1.9,4.4,0.1,6.6,1
		c0.9,0.5,0.5,1.3,0.3,2.1c-1,3-2,5.9-2.9,8.9c-2.1,7.3-3.5,14.6-4,22.2c0,0.4-0.1,0.7-0.1,1.1c0.1,0.4,0.2,0.8,0.4,1.2
		c0.2-0.3,0.6-0.6,0.8-0.9c1.9-4,3.8-7.7,5.6-11.7c4.3-10.2,10.3-19.4,16-28.7c0.6-0.9,1.3-1.7,1.8-2.7c0.6-1.4,1.7-1.7,3.1-1.6
		c2.4,0.4,3.9,2,5.5,3.5C271.4,262.8,271.4,263.6,271.4,264.1z M234.6,279.4c0-0.2-0.1-0.4-0.2-0.6c0,0.1-0.1,0.4,0,0.6
		c0,0.4,0.1,0.8,0.1,1.2c-0.4,0.6-1,1.2-1.2,1.8c-1.3,6.8-2.7,13.7-3.7,20.5c-0.4,2.4-0.4,5.3,1.5,7.4c0.6-0.9,0.9-1.8,0.6-3
		c-0.1-0.9-0.2-1.8-0.3-2.8c-0.1-5.4,0.3-10.7,1.3-16.1c0.4-2.7,1.1-5.3,1.7-7.9C234.6,280.2,234.6,279.7,234.6,279.4z M235.6,275
		v-0.3l-0.1,0.1L235.6,275z M256.3,287.7c-0.1,0.1-0.3,0.2-0.4,0.3c-0.1,0.1-0.1,0.3-0.2,0.4c0.2-0.1,0.4-0.1,0.4-0.3
		C256.3,288,256.3,287.9,256.3,287.7z M255.8,288.6l-0.1-0.1L255.8,288.6z M256.4,285.9l-0.1-0.1L256.4,285.9z M257.2,284.1
		c0-0.1,0-0.1-0.1-0.1C257.2,284,257.2,284.1,257.2,284.1c-0.1,0.2-0.2,0.4-0.4,0.6C257,284.6,257,284.4,257.2,284.1z"/>
	<g>
		<path class="st0" d="M168.8,294.8C168.8,294.9,168.8,294.8,168.8,294.8c0.1-0.2,0.1-0.3,0.1-0.3c-0.1,0-0.1,0.1-0.3,0.1
			C168.7,294.6,168.7,294.8,168.8,294.8z"/>
		<path class="st0" d="M225.9,242.3c0,0.3-0.1,0.6-0.5,0.6c-0.8,0-1.6,0.2-2.4,0.4c-0.5,0.1-1,0.1-1.5,0.1c-0.8,0.3-1.7,0.4-2.5,0.7
			c-1.1,0.3-1.8,1.2-3,0.9c-0.3-0.1-0.4-0.5-0.3-0.7c0-0.1,0.1-0.1,0.1-0.2c-10.2,1.8-19,3.7-19,3.7l0,0c-0.5-0.2-1-0.3-1.7-0.2
			c-4.7,0.5-9.5,0.8-14.2,1.1c0,0,0,0,0,0c-0.3,0.2-0.6,0.3-0.9,0.3c-0.3,0-0.6,0.1-1,0.1c-0.2,0-0.3-0.1-0.4-0.2
			c-1.4,0.1-2.8,0.2-4.2,0.4c-5.3,0.7-10.4,1.8-15.3,3.9c-5.1,0.1-10,0-14.6,0c-0.1,0-0.1,0.1-0.2,0.1c-0.8,0.2-1.6,0.1-2.4,0.1
			c-0.2,0-0.3-0.1-0.4-0.2c-8.9-0.1-16.7-0.4-22.8-0.4c0.1,0.2,0,0.5-0.2,0.6c-0.4,0.2-0.8,0.4-1.2,0.4c-0.4,0-0.9-0.2-1.3-0.3
			c-0.1,0-0.2,0-0.3,0c-0.2,0.1-0.4,0.1-0.6,0.2c-0.8,0.2-1.6,0.4-2.4,0.6c-1.4,0.5-2.7,1.2-4.2,1c-0.6-0.1-1.2-0.2-1.9-0.3
			c-0.2,0.1-0.4,0.1-0.5,0.2c-0.3,0.1-0.5,0.3-0.8,0.5c0,0.1,0,0.1,0,0.1c0.3,0.9,0.9,1.8,1.4,2.6c0.2,0.3,0.5,0.7,0.7,0.9
			c0.4,0.3,0.8,0.5,1.2,0.8c0.5,0.4,1.1,0.9,1.6,1.3c0.6,0,1.2,0.1,1.8,0.3c0,0,0.1,0,0.1,0c1.4,0.1,2.7,0.4,4.1,0.3
			c0.9,0,1.9-0.2,2.7,0c0.5-0.1,1-0.2,1.5-0.2c0.8,0,1.5,0.7,1.5,1.5c0,0.1,0,0.2,0,0.3c0.2,0,0.3,0.1,0.5,0.2
			c0.5,0.3,0.9,0.8,1.3,1.3c0.1,0.1,0.3,0.1,0.4,0.2c0.1,0,0.2,0.1,0.3,0.3c3.4,0.4,5.8,0.4,5.8,0.4l6.6-1c0.1-0.1,0.2-0.2,0.3-0.2
			c0.8-0.2,1.6-0.4,2.4-0.2l8-1.2c0,0,0,0,0,0c0-0.1,0.1-0.1,0.1-0.2c0,0,0.1-0.1,0.2-0.1c0.1,0,0.1,0,0.2,0h0.5
			c0.1,0,0.2,0,0.3,0.1c0,0,0.1,0.1,0.1,0.1c0,0,0,0,0,0l10.6-1.6c0.2,0,0.4,0,0.6-0.1c4.5-1.9,9.2-2.3,13.8-3.2
			c0.2,0,0.5,0.1,0.7,0.2c-0.2,0.2-0.5,0.6-0.7,0.6c-2.2,0.5-4.4,0.9-6.6,1.3c-0.4,0-0.6,0.4-1,0.7c2.4-0.3,4.8-0.6,7.1-0.9
			c0.6,0,1.2,0.1,0.9,1c-0.5,2-1.1,3.9-1.7,5.8c-0.1,0.5-0.1,0.9-0.3,1.3c0-0.4-0.1-0.8-0.1-1.2c-0.8,3-1.8,5.8-2.2,9
			c-0.9,6.7-1.4,13.6-2.1,20.3c-0.1,0.7,0.1,1.5,0.3,2.3c0-0.7,0.1-1.4,0.1-2.1c0.1,0.2,0.2,0.2,0.2,0.2c-0.1,0.6-0.2,1.4-0.2,2.1
			c0,0,0,0.1,0,0.2c0-0.1,0-0.1-0.1-0.1c0,0.1-0.1,0.3-0.1,0.3c-0.1,0.5-0.1,1-0.1,1.7c0-0.4,0.1-0.8,0.1-1.2
			c0.1,0.7,0.1,1.4,0.1,2.3c0,3.2-0.4,6.6,0.3,9.9c0.4,1.7,1.2,2.6,2.4,2.9c0.8,0.2,1.9-0.1,2.7-0.4c0.3-0.3,0.2-1.5,0.2-2.3
			c0.1-3,0.1-5.9,0.5-9c1.7-14.3,4.9-28.1,8-42c0.3-1.2,0.9-1.7,1.9-1.8c3.9-0.3,7.8-0.8,11.7-1.2c0.2,0,0.4-0.3,0.6-0.3
			c-0.1,0-0.4-0.1-0.6-0.1c-3.2,0.1-6.3,0.3-9.5,0.4c-1.4,0.2-2.8,0.3-4.2,0.3c-0.1,0-0.4-0.3-0.6-0.3c0.3-0.1,0.4-0.3,0.5-0.3
			c0.8-0.1,1.6,0,2.3-0.1c4.2-0.5,8.4-0.9,12.5-1.4c0.8-0.1,1.4-0.2,1.8-0.5l0,0c0,0,16.2,0,30.1-2.7c-0.1-0.1-0.2-0.1-0.4-0.2
			c-0.2,0-0.4,0-0.6-0.1c-0.8-0.1-1.5-0.5-2.3-0.6c-0.1,0-0.2-0.1-0.2-0.1c-0.4-0.1-0.8-0.2-1.1-0.4c-0.5-0.3-0.1-1,0.4-0.9
			c1.3,0.3,3,0.4,4.3-0.2c1.1-0.5,2-1.4,3.2-1.8c2.3-0.7,4.7,0.2,7,0.7c0.8-1,1.2-2.3,3.6-4.4c0,0-0.1,0-0.1,0
			c-0.3-0.1-0.6-0.3-0.8-0.6c-0.7-0.2-1.3-0.2-2,0c-0.7,0.1-1.3,0.3-2,0.4c0,0,0,0,0,0c-0.3,0.1-0.7,0.2-1,0
			c-0.1-0.1-0.1-0.1-0.2-0.2c-0.3,0-0.5-0.1-0.8-0.3c-0.2-0.2-0.3-0.4-0.2-0.7c0.3-0.5,0.8-0.8,1.3-0.9c0.3-0.4,0.9-0.6,1.5-0.6
			c0.1,0,0.3,0,0.4,0c0.2,0,0.5,0,0.7,0c0.5,0,1,0.1,1.5,0.2c1.1-0.1,2.2,0,3.3,0.3c0.2,0,0.3,0,0.5,0c0.3,0,0.5,0.3,0.5,0.5
			c0.1-0.1,0.2-0.2,0.4-0.3C250.3,239,238.9,240.2,225.9,242.3z M168.8,294.8C168.8,294.8,168.8,294.9,168.8,294.8
			c-0.1,0-0.1-0.2-0.2-0.3c0.1,0,0.2-0.1,0.3-0.1C168.9,294.5,168.8,294.6,168.8,294.8z"/>
	</g>
</g>
</svg>
